<?xml version="1.0" encoding="UTF-8"?>
<svg version="1.1" xmlns="http://www.w3.org/2000/svg" width="201" height="201">
<path d="M0 0 C21.79556567 16.7815623 36.51240668 39.87653768 40.55859375 67.234375 C42.42001394 98.42407492 36.53436783 125.27246642 15.55859375 149.234375 C-0.59450512 167.05326219 -23.85675577 180.94618998 -48.40722656 182.41137695 C-82.10826897 183.07492901 -108.13035722 175.88113925 -133.00390625 152.046875 C-153.83800949 130.65523942 -161.03230902 104.59742965 -160.71484375 75.390625 C-159.99517956 48.22864589 -146.59391448 24.58601196 -127.40625 5.8984375 C-92.20094684 -25.73531317 -38.04174496 -27.51178995 0 0 Z " fill="#F5FAFC" transform="translate(160.44140625,18.765625)"/>
<path d="M0 0 C0.598125 0.20625 1.19625 0.4125 1.8125 0.625 C1.35230469 1.03363281 0.89210937 1.44226562 0.41796875 1.86328125 C-1.34664771 3.79963654 -2.02721622 5.34988998 -2.875 7.8125 C-3.25205078 8.88564453 -3.25205078 8.88564453 -3.63671875 9.98046875 C-3.81847656 10.52316406 -4.00023437 11.06585938 -4.1875 11.625 C-2.5478125 10.696875 -2.5478125 10.696875 -0.875 9.75 C4.20271236 7.21560578 9.24459286 6.45869733 14.8125 5.625 C15.79734375 5.439375 16.7821875 5.25375 17.796875 5.0625 C24.54161699 3.80441341 30.95734009 3.38210063 37.8125 3.625 C38.1425 2.305 38.4725 0.985 38.8125 -0.375 C39.4003125 0.615 39.4003125 0.615 40 1.625 C41.66666667 3.91666667 41.66666667 3.91666667 44.5 3.875 C45.6446875 3.75125 45.6446875 3.75125 46.8125 3.625 C47.3075 5.11 47.3075 5.11 47.8125 6.625 C41.2125 6.625 34.6125 6.625 27.8125 6.625 C32.80456678 8.10163807 32.80456678 8.10163807 37.80322266 9.55566406 C45.46271768 11.88520837 50.47432572 15.953514 55.6875 21.875 C56.18507813 22.42929687 56.68265625 22.98359375 57.1953125 23.5546875 C58.40697749 24.90615999 59.61059664 26.2648389 60.8125 27.625 C57.32895795 27.625 56.92822947 27.17464842 54.4375 24.9375 C53.50744141 24.11572266 53.50744141 24.11572266 52.55859375 23.27734375 C50.8125 21.625 50.8125 21.625 48.5 19 C41.00149603 12.3734151 29.59643124 10.2086625 19.8125 10.625 C20.29460937 11.03492188 20.77671875 11.44484375 21.2734375 11.8671875 C21.90507813 12.40601563 22.53671875 12.94484375 23.1875 13.5 C23.81398438 14.03367187 24.44046875 14.56734375 25.0859375 15.1171875 C26.37086651 16.23932007 27.60621975 17.41871975 28.8125 18.625 C23.37282583 18.34604235 20.43426776 16.12284122 16.3515625 12.8046875 C12.69015535 11.10354141 9.58714143 11.59010423 5.8125 12.625 C3.30325571 13.84011721 1.08373942 15.02522469 -1.25 16.5 C-5.79140505 19.2892094 -10.24033008 21.62092352 -15.1875 23.625 C-14.07890625 23.51800781 -12.9703125 23.41101563 -11.828125 23.30078125 C-10.36465492 23.17882541 -8.90110883 23.05777927 -7.4375 22.9375 C-6.70789062 22.86466797 -5.97828125 22.79183594 -5.2265625 22.71679688 C-1.80823925 22.45265371 0.32808309 22.33991613 3.328125 24.10546875 C4.06289062 24.85763672 4.06289062 24.85763672 4.8125 25.625 C3.08 25.50125 3.08 25.50125 1.3125 25.375 C-6.07867022 25.4338469 -13.36538278 26.78741631 -20.1875 29.625 C-22.78477082 32.37867582 -24.13563913 35.00536112 -25.1875 38.625 C-24.63320313 38.34785156 -24.07890625 38.07070312 -23.5078125 37.78515625 C-20.734375 36.3984375 -17.9609375 35.01171875 -15.1875 33.625 C-16.54753181 38.0489237 -18.31704683 39.79790021 -22.0625 42.4375 C-26.8734865 46.10831051 -29.07940514 48.97147287 -31.1875 54.625 C-31.1875 55.615 -31.1875 56.605 -31.1875 57.625 C-30.83558594 56.94953125 -30.48367187 56.2740625 -30.12109375 55.578125 C-26.77813291 49.53810176 -24.46164782 46.48689199 -18.1875 43.625 C-13.12181619 41.22283893 -13.12181619 41.22283893 -9.75 36.875 C-9.564375 36.1325 -9.37875 35.39 -9.1875 34.625 C-8.8575 34.625 -8.5275 34.625 -8.1875 34.625 C-8.55673077 41.025 -8.55673077 41.025 -11.75 44.0625 C-12.9565625 44.8359375 -12.9565625 44.8359375 -14.1875 45.625 C-11.88968446 45.74135105 -11.88968446 45.74135105 -9.1875 44.625 C-6.93179889 42.14554302 -5.10063147 39.37268627 -3.1875 36.625 C0.62680388 31.48177642 3.61626526 28.54019983 9.8125 26.625 C12.75 26.4375 12.75 26.4375 14.8125 26.625 C11.8125 28.625 11.8125 28.625 8.125 29.875 C3.10603875 32.27376824 1.0711106 36.72748862 -1.30932617 41.49707031 C-3.81852827 46.44231992 -6.35833057 49.63921128 -11.6875 51.49609375 C-12.5125 51.68300781 -13.3375 51.86992188 -14.1875 52.0625 C-18.90498144 53.32988307 -21.13139018 54.85579789 -24.1875 58.625 C-23.57003906 58.20347656 -22.95257813 57.78195313 -22.31640625 57.34765625 C-16.42453237 53.53632231 -12.20992668 51.85152989 -5.1875 51.625 C-5.1875 50.635 -5.1875 49.645 -5.1875 48.625 C0.8671875 48.4296875 0.8671875 48.4296875 2.8125 48.625 C3.4725 49.285 4.1325 49.945 4.8125 50.625 C7.29267869 51.34826344 9.73650946 51.98255241 12.25 52.5625 C13.69684539 52.90919445 15.14345929 53.25685634 16.58984375 53.60546875 C17.30382324 53.7761084 18.01780273 53.94674805 18.75341797 54.12255859 C23.13257747 55.19112751 27.47183069 56.41108401 31.8125 57.625 C31.4825 56.635 31.1525 55.645 30.8125 54.625 C32.4625 55.285 34.1125 55.945 35.8125 56.625 C35.8125 57.285 35.8125 57.945 35.8125 58.625 C37.1325 59.285 38.4525 59.945 39.8125 60.625 C39.8125 61.285 39.8125 61.945 39.8125 62.625 C41.4625 62.955 43.1125 63.285 44.8125 63.625 C44.8125 64.285 44.8125 64.945 44.8125 65.625 C39.8625 67.605 34.9125 69.585 29.8125 71.625 C29.92802385 79.48062146 31.86120346 84.02901043 36.0234375 90.640625 C38.50202341 94.77520935 40.19907562 99.09538623 41.8125 103.625 C42.32554688 103.46515625 42.83859375 103.3053125 43.3671875 103.140625 C46.56601101 102.46611269 49.67050365 102.46891776 52.9375 102.375 C60.65989385 101.95590461 67.16482005 100.57127322 72.578125 94.71484375 C75.49643649 90.65426387 77.27548054 86.48460236 79 81.8125 C81.92101104 74.29718352 87.17073209 69.19760438 92.8125 63.625 C92.1525 63.625 91.4925 63.625 90.8125 63.625 C91.1425 62.635 91.4725 61.645 91.8125 60.625 C93.1325 61.285 94.4525 61.945 95.8125 62.625 C95.33039063 63.16769531 94.84828125 63.71039063 94.3515625 64.26953125 C93.71992188 64.98496094 93.08828125 65.70039062 92.4375 66.4375 C91.81101563 67.14519531 91.18453125 67.85289063 90.5390625 68.58203125 C88.671901 70.71303819 88.671901 70.71303819 86.8125 73.625 C95.42988853 73.93154742 102.74725404 74.02089303 110.8125 70.625 C111.36853656 78.0233753 110.43726907 83.16298609 106.8125 89.625 C106.338125 90.48996094 105.86375 91.35492188 105.375 92.24609375 C100.9028631 99.82507575 95.27768934 105.70369362 88.8125 111.625 C87.93464844 112.44355469 87.05679688 113.26210937 86.15234375 114.10546875 C78.36457307 120.95274282 69.88034418 125.10803895 59.8125 127.625 C63.7725 127.625 67.7325 127.625 71.8125 127.625 C71.4825 128.285 71.1525 128.945 70.8125 129.625 C66.91876568 130.92291144 63.22168345 130.76780578 59.1640625 130.7578125 C58.31451996 130.75876923 57.46497742 130.75972595 56.58969116 130.76071167 C54.79254075 130.76139207 52.99538787 130.75954751 51.19824219 130.75537109 C48.45502149 130.75003409 45.71196551 130.75531397 42.96875 130.76171875 C41.22135381 130.76105768 39.47395772 130.75977594 37.7265625 130.7578125 C36.9087027 130.75983673 36.0908429 130.76186096 35.24819946 130.76394653 C31.30253521 130.7478098 27.66492272 130.59996599 23.8125 129.625 C24.74524109 130.75394876 25.68390122 131.87800876 26.625 133 C27.14707031 133.62648437 27.66914062 134.25296875 28.20703125 134.8984375 C29.89475739 136.8471048 29.89475739 136.8471048 32.8125 138.625 C28.88527261 138.93301783 26.55618312 139.10308201 23.1875 136.9375 C20.8125 134.625 20.8125 134.625 18.80078125 132.24609375 C14.79833496 128.73545132 10.55297106 127.26087503 5.625 125.375 C-2.00958195 122.30808311 -7.73837605 119.39550439 -13.4453125 113.375 C-15.16890393 111.38163568 -15.16890393 111.38163568 -18.1875 110.625 C-14.7350182 116.24446506 -11.51482146 120.6929294 -6.1875 124.625 C-7.1775 125.12 -7.1775 125.12 -8.1875 125.625 C-18.72162216 119.44498166 -22.97106252 112.7688824 -27.5390625 101.56640625 C-29.63984994 96.44231166 -32.06086214 91.47020316 -34.47216797 86.48657227 C-38.68856241 77.679156 -40.33235677 69.7566743 -40.3125 59.9375 C-40.31507812 58.65488281 -40.31765625 57.37226562 -40.3203125 56.05078125 C-40.1875 52.625 -40.1875 52.625 -39.69018555 50.67529297 C-39.16120916 48.51776812 -39.04632982 46.61287673 -39.01171875 44.39453125 C-38.51598267 25.55466082 -38.51598267 25.55466082 -31.9375 18.0625 C-31.36 17.588125 -30.7825 17.11375 -30.1875 16.625 C-32.0625 21.375 -32.0625 21.375 -33.1875 23.625 C-33.25815617 25.66555005 -33.27171976 27.70834257 -33.25 29.75 C-33.23646484 31.39355469 -33.23646484 31.39355469 -33.22265625 33.0703125 C-33.21105469 33.91335937 -33.19945312 34.75640625 -33.1875 35.625 C-32.8471875 34.98433594 -32.506875 34.34367187 -32.15625 33.68359375 C-28.20887244 26.63920455 -23.85092802 21.71057643 -17.109375 17.25 C-11.74441241 13.64605566 -9.29134315 9.84566816 -6.51171875 4.015625 C-4.87041807 1.0525689 -3.55334524 -0.6091449 0 0 Z " fill="#94CAED" transform="translate(65.1875,37.375)"/>
<path d="M0 0 C0.598125 0.20625 1.19625 0.4125 1.8125 0.625 C1.35230469 1.03363281 0.89210937 1.44226562 0.41796875 1.86328125 C-1.34664771 3.79963654 -2.02721622 5.34988998 -2.875 7.8125 C-3.25205078 8.88564453 -3.25205078 8.88564453 -3.63671875 9.98046875 C-3.81847656 10.52316406 -4.00023437 11.06585938 -4.1875 11.625 C-2.5478125 10.696875 -2.5478125 10.696875 -0.875 9.75 C4.20271236 7.21560578 9.24459286 6.45869733 14.8125 5.625 C15.79734375 5.439375 16.7821875 5.25375 17.796875 5.0625 C24.54161699 3.80441341 30.95734009 3.38210063 37.8125 3.625 C38.1425 2.305 38.4725 0.985 38.8125 -0.375 C39.4003125 0.615 39.4003125 0.615 40 1.625 C41.66666667 3.91666667 41.66666667 3.91666667 44.5 3.875 C45.6446875 3.75125 45.6446875 3.75125 46.8125 3.625 C47.3075 5.11 47.3075 5.11 47.8125 6.625 C41.2125 6.625 34.6125 6.625 27.8125 6.625 C32.80456678 8.10163807 32.80456678 8.10163807 37.80322266 9.55566406 C45.46271768 11.88520837 50.47432572 15.953514 55.6875 21.875 C56.18507813 22.42929687 56.68265625 22.98359375 57.1953125 23.5546875 C58.40697749 24.90615999 59.61059664 26.2648389 60.8125 27.625 C57.32895795 27.625 56.92822947 27.17464842 54.4375 24.9375 C53.50744141 24.11572266 53.50744141 24.11572266 52.55859375 23.27734375 C50.8125 21.625 50.8125 21.625 48.5 19 C41.00149603 12.3734151 29.59643124 10.2086625 19.8125 10.625 C20.29460937 11.03492188 20.77671875 11.44484375 21.2734375 11.8671875 C21.90507813 12.40601563 22.53671875 12.94484375 23.1875 13.5 C23.81398438 14.03367187 24.44046875 14.56734375 25.0859375 15.1171875 C26.37086651 16.23932007 27.60621975 17.41871975 28.8125 18.625 C23.37282583 18.34604235 20.43426776 16.12284122 16.3515625 12.8046875 C12.69015535 11.10354141 9.58714143 11.59010423 5.8125 12.625 C3.30325571 13.84011721 1.08373942 15.02522469 -1.25 16.5 C-5.79140505 19.2892094 -10.24033008 21.62092352 -15.1875 23.625 C-14.07890625 23.51800781 -12.9703125 23.41101563 -11.828125 23.30078125 C-10.36465492 23.17882541 -8.90110883 23.05777927 -7.4375 22.9375 C-6.70789062 22.86466797 -5.97828125 22.79183594 -5.2265625 22.71679688 C-1.80823925 22.45265371 0.32808309 22.33991613 3.328125 24.10546875 C4.06289062 24.85763672 4.06289062 24.85763672 4.8125 25.625 C3.08 25.50125 3.08 25.50125 1.3125 25.375 C-6.07867022 25.4338469 -13.36538278 26.78741631 -20.1875 29.625 C-22.78477082 32.37867582 -24.13563913 35.00536112 -25.1875 38.625 C-24.63320313 38.34785156 -24.07890625 38.07070312 -23.5078125 37.78515625 C-20.734375 36.3984375 -17.9609375 35.01171875 -15.1875 33.625 C-16.54753181 38.0489237 -18.31704683 39.79790021 -22.0625 42.4375 C-26.8734865 46.10831051 -29.07940514 48.97147287 -31.1875 54.625 C-31.1875 55.615 -31.1875 56.605 -31.1875 57.625 C-30.83558594 56.94953125 -30.48367187 56.2740625 -30.12109375 55.578125 C-26.77813291 49.53810176 -24.46164782 46.48689199 -18.1875 43.625 C-13.12181619 41.22283893 -13.12181619 41.22283893 -9.75 36.875 C-9.564375 36.1325 -9.37875 35.39 -9.1875 34.625 C-8.8575 34.625 -8.5275 34.625 -8.1875 34.625 C-8.55673077 41.025 -8.55673077 41.025 -11.75 44.0625 C-12.9565625 44.8359375 -12.9565625 44.8359375 -14.1875 45.625 C-11.88968446 45.74135105 -11.88968446 45.74135105 -9.1875 44.625 C-6.93179889 42.14554302 -5.10063147 39.37268627 -3.1875 36.625 C0.62680388 31.48177642 3.61626526 28.54019983 9.8125 26.625 C12.75 26.4375 12.75 26.4375 14.8125 26.625 C11.8125 28.625 11.8125 28.625 8.125 29.875 C3.10603875 32.27376824 1.0711106 36.72748862 -1.30932617 41.49707031 C-3.81852827 46.44231992 -6.35833057 49.63921128 -11.6875 51.49609375 C-12.5125 51.68300781 -13.3375 51.86992188 -14.1875 52.0625 C-18.90498144 53.32988307 -21.13139018 54.85579789 -24.1875 58.625 C-23.1975 57.965 -22.2075 57.305 -21.1875 56.625 C-19.7025 57.12 -19.7025 57.12 -18.1875 57.625 C-19.6725 58.12 -19.6725 58.12 -21.1875 58.625 C-22.32295562 60.92034258 -22.32295562 60.92034258 -23.1875 63.625 C-23.52652344 64.33785156 -23.86554687 65.05070312 -24.21484375 65.78515625 C-26.58441193 72.70353403 -26.52726927 81.88750572 -24.0546875 88.78515625 C-19.37762982 96.90266735 -13.56898825 100.9179274 -4.875 103.75 C-2.23906115 104.6138595 0.24924703 105.54293473 2.8125 106.625 C3.1425 107.615 3.4725 108.605 3.8125 109.625 C0.5125 109.295 -2.7875 108.965 -6.1875 108.625 C-3.51887996 112.17530193 -1.83226354 114.26634776 2.58691406 115.22998047 C5.88108177 115.47640266 9.13422978 115.55681777 12.4375 115.5625 C13.56929687 115.59150391 14.70109375 115.62050781 15.8671875 115.65039062 C22.41762255 115.83051693 22.41762255 115.83051693 28.8125 114.625 C24.93174893 118.68214884 22.29835868 118.83044536 16.6875 119.1875 C15.40617187 119.27128906 14.12484375 119.35507813 12.8046875 119.44140625 C11.81726563 119.50199219 10.82984375 119.56257813 9.8125 119.625 C11.06546875 119.89054687 12.3184375 120.15609375 13.609375 120.4296875 C15.26047774 120.78617559 16.91151607 121.14296206 18.5625 121.5 C19.3875 121.67402344 20.2125 121.84804687 21.0625 122.02734375 C21.86171875 122.20136719 22.6609375 122.37539062 23.484375 122.5546875 C24.2175293 122.71179199 24.95068359 122.86889648 25.70605469 123.03076172 C27.91720696 123.65453833 29.76660294 124.59280717 31.8125 125.625 C37.07983861 126.30927662 41.47977581 126.30347777 46.25 123.875 C48.81192923 121.71874826 48.81192923 121.71874826 50.8125 119.375 C52.8125 117.625 52.8125 117.625 56.0625 117.375 C56.97 117.4575 57.8775 117.54 58.8125 117.625 C58.02875 118.2025 57.245 118.78 56.4375 119.375 C53.95265252 121.50486927 53.10984861 122.73930871 51.8125 125.625 C57.7270515 124.46125723 63.26179941 122.98172204 68.8125 120.625 C69.61816406 120.31046875 70.42382812 119.9959375 71.25390625 119.671875 C77.5556926 116.93949741 81.00036654 113.5124329 85.05078125 108.0078125 C87.09494051 105.24298512 89.31071152 102.9704267 91.8125 100.625 C92.4725 100.955 93.1325 101.285 93.8125 101.625 C93.43738281 102.0375 93.06226563 102.45 92.67578125 102.875 C89.89632565 106.01151413 87.52552732 109.01180532 85.5 112.6875 C79.91556966 121.78415067 69.43873254 124.53036479 59.8125 127.625 C63.7725 127.625 67.7325 127.625 71.8125 127.625 C71.4825 128.285 71.1525 128.945 70.8125 129.625 C66.91876568 130.92291144 63.22168345 130.76780578 59.1640625 130.7578125 C58.31451996 130.75876923 57.46497742 130.75972595 56.58969116 130.76071167 C54.79254075 130.76139207 52.99538787 130.75954751 51.19824219 130.75537109 C48.45502149 130.75003409 45.71196551 130.75531397 42.96875 130.76171875 C41.22135381 130.76105768 39.47395772 130.75977594 37.7265625 130.7578125 C36.9087027 130.75983673 36.0908429 130.76186096 35.24819946 130.76394653 C31.30253521 130.7478098 27.66492272 130.59996599 23.8125 129.625 C24.74524109 130.75394876 25.68390122 131.87800876 26.625 133 C27.14707031 133.62648437 27.66914062 134.25296875 28.20703125 134.8984375 C29.89475739 136.8471048 29.89475739 136.8471048 32.8125 138.625 C28.88527261 138.93301783 26.55618312 139.10308201 23.1875 136.9375 C20.8125 134.625 20.8125 134.625 18.80078125 132.24609375 C14.79833496 128.73545132 10.55297106 127.26087503 5.625 125.375 C-2.00958195 122.30808311 -7.73837605 119.39550439 -13.4453125 113.375 C-15.16890393 111.38163568 -15.16890393 111.38163568 -18.1875 110.625 C-14.7350182 116.24446506 -11.51482146 120.6929294 -6.1875 124.625 C-7.1775 125.12 -7.1775 125.12 -8.1875 125.625 C-18.72162216 119.44498166 -22.97106252 112.7688824 -27.5390625 101.56640625 C-29.63984994 96.44231166 -32.06086214 91.47020316 -34.47216797 86.48657227 C-38.68856241 77.679156 -40.33235677 69.7566743 -40.3125 59.9375 C-40.31507812 58.65488281 -40.31765625 57.37226562 -40.3203125 56.05078125 C-40.1875 52.625 -40.1875 52.625 -39.69018555 50.67529297 C-39.16120916 48.51776812 -39.04632982 46.61287673 -39.01171875 44.39453125 C-38.51598267 25.55466082 -38.51598267 25.55466082 -31.9375 18.0625 C-31.36 17.588125 -30.7825 17.11375 -30.1875 16.625 C-32.0625 21.375 -32.0625 21.375 -33.1875 23.625 C-33.25815617 25.66555005 -33.27171976 27.70834257 -33.25 29.75 C-33.23646484 31.39355469 -33.23646484 31.39355469 -33.22265625 33.0703125 C-33.21105469 33.91335937 -33.19945312 34.75640625 -33.1875 35.625 C-32.8471875 34.98433594 -32.506875 34.34367187 -32.15625 33.68359375 C-28.20887244 26.63920455 -23.85092802 21.71057643 -17.109375 17.25 C-11.74441241 13.64605566 -9.29134315 9.84566816 -6.51171875 4.015625 C-4.87041807 1.0525689 -3.55334524 -0.6091449 0 0 Z " fill="#3184BD" transform="translate(65.1875,37.375)"/>
<path d="M0 0 C0 0.99 0 1.98 0 3 C0.99 3.99 0.99 3.99 2 5 C1.46890625 5.49628906 0.9378125 5.99257812 0.390625 6.50390625 C-5.35739834 12.03165863 -8.72832348 16.95693258 -11.8125 24.3125 C-15.42728022 32.47715802 -19.61596639 39.48257757 -28.0390625 43.17578125 C-32.88456375 44.52459492 -37.68233514 44.71571395 -42.6796875 44.859375 C-45.33907212 44.97200776 -47.48038297 45.21499369 -50 46 C-50.53625 44.906875 -51.0725 43.81375 -51.625 42.6875 C-53.3425321 39.23409916 -55.17996976 35.86602041 -57.0625 32.5 C-60.53728562 26.13982277 -63.55954689 20.46062517 -63 13 C-61.27119018 12.94550162 -59.54187288 12.90698312 -57.8125 12.875 C-56.84957031 12.85179688 -55.88664062 12.82859375 -54.89453125 12.8046875 C-51.86025609 13.00942941 -49.77568232 13.81715405 -47 15 C-44.0462776 14.78901983 -42.57123014 14.5950314 -40.5 12.4375 C-39 11 -39 11 -36.5 10.5625 C-34 11 -34 11 -32.1875 13 C-31.795625 13.66 -31.40375 14.32 -31 15 C-32.65 15.99 -34.3 16.98 -36 18 C-34.906875 18.2475 -33.81375 18.495 -32.6875 18.75 C-29 20 -29 20 -27.5625 22.125 C-26.19482055 24.16844979 -26.19482055 24.16844979 -24.1171875 24.36328125 C-21.63886252 24.50011087 -21.63886252 24.50011087 -18 24 C-15.70785253 21.20129061 -15.70785253 21.20129061 -16.125 18.125 C-17.58848353 12.89827311 -21.17133704 9.691925 -25 6 C-24.67 5.34 -24.34 4.68 -24 4 C-22.989375 4.33 -21.97875 4.66 -20.9375 5 C-15.99546683 6.34423302 -12.1074504 7.06299551 -7.3359375 4.65625 C-4.84196755 3.1668933 -2.40620233 1.62672834 0 0 Z " fill="#EA4E45" transform="translate(157,96)"/>
<path d="M0 0 C6.0546875 -0.1953125 6.0546875 -0.1953125 8 0 C8.66 0.66 9.32 1.32 10 2 C12.48017869 2.72326344 14.92400946 3.35755241 17.4375 3.9375 C18.88434539 4.28419445 20.33095929 4.63185634 21.77734375 4.98046875 C22.49132324 5.1511084 23.20530273 5.32174805 23.94091797 5.49755859 C28.32007747 6.56612751 32.65933069 7.78608401 37 9 C36.505 7.515 36.505 7.515 36 6 C38.475 6.99 38.475 6.99 41 8 C41 8.66 41 9.32 41 10 C42.32 10.66 43.64 11.32 45 12 C45 12.66 45 13.32 45 14 C46.65 14.33 48.3 14.66 50 15 C50 15.66 50 16.32 50 17 C32.01819035 24.95655294 12.27089886 31.16263497 -7 24 C-16.18088622 20.20624536 -16.18088622 20.20624536 -18.35546875 17.00390625 C-19 15 -19 15 -17.75 12.375 C-16 10 -16 10 -14 8 C-13.566875 7.505 -13.13375 7.01 -12.6875 6.5 C-8.83874543 3.07888483 -4.99899667 2.76748853 0 3 C0 2.01 0 1.02 0 0 Z " fill="#97C8EC" transform="translate(60,86)"/>
<path d="M0 0 C0.598125 0.20625 1.19625 0.4125 1.8125 0.625 C1.35230469 1.03363281 0.89210937 1.44226562 0.41796875 1.86328125 C-1.34664771 3.79963654 -2.02721622 5.34988998 -2.875 7.8125 C-3.25205078 8.88564453 -3.25205078 8.88564453 -3.63671875 9.98046875 C-3.81847656 10.52316406 -4.00023437 11.06585938 -4.1875 11.625 C-2.5478125 10.696875 -2.5478125 10.696875 -0.875 9.75 C4.20271236 7.21560578 9.24459286 6.45869733 14.8125 5.625 C15.79734375 5.439375 16.7821875 5.25375 17.796875 5.0625 C24.54161699 3.80441341 30.95734009 3.38210063 37.8125 3.625 C38.1425 2.305 38.4725 0.985 38.8125 -0.375 C39.4003125 0.615 39.4003125 0.615 40 1.625 C41.66666667 3.91666667 41.66666667 3.91666667 44.5 3.875 C45.6446875 3.75125 45.6446875 3.75125 46.8125 3.625 C47.3075 5.11 47.3075 5.11 47.8125 6.625 C41.2125 6.625 34.6125 6.625 27.8125 6.625 C32.80456678 8.10163807 32.80456678 8.10163807 37.80322266 9.55566406 C45.46271768 11.88520837 50.47432572 15.953514 55.6875 21.875 C56.18507813 22.42929687 56.68265625 22.98359375 57.1953125 23.5546875 C58.40697749 24.90615999 59.61059664 26.2648389 60.8125 27.625 C57.32895795 27.625 56.92822947 27.17464842 54.4375 24.9375 C53.50744141 24.11572266 53.50744141 24.11572266 52.55859375 23.27734375 C50.8125 21.625 50.8125 21.625 48.5 19 C41.00149603 12.3734151 29.59643124 10.2086625 19.8125 10.625 C20.29460937 11.03492188 20.77671875 11.44484375 21.2734375 11.8671875 C21.90507813 12.40601563 22.53671875 12.94484375 23.1875 13.5 C23.81398438 14.03367187 24.44046875 14.56734375 25.0859375 15.1171875 C26.37086651 16.23932007 27.60621975 17.41871975 28.8125 18.625 C23.37282583 18.34604235 20.43426776 16.12284122 16.3515625 12.8046875 C12.69015535 11.10354141 9.58714143 11.59010423 5.8125 12.625 C3.30325571 13.84011721 1.08373942 15.02522469 -1.25 16.5 C-5.79140505 19.2892094 -10.24033008 21.62092352 -15.1875 23.625 C-14.07890625 23.51800781 -12.9703125 23.41101563 -11.828125 23.30078125 C-10.36465492 23.17882541 -8.90110883 23.05777927 -7.4375 22.9375 C-6.70789062 22.86466797 -5.97828125 22.79183594 -5.2265625 22.71679688 C-1.80823925 22.45265371 0.32808309 22.33991613 3.328125 24.10546875 C4.06289062 24.85763672 4.06289062 24.85763672 4.8125 25.625 C3.08 25.50125 3.08 25.50125 1.3125 25.375 C-6.07867022 25.4338469 -13.36538278 26.78741631 -20.1875 29.625 C-22.78477082 32.37867582 -24.13563913 35.00536112 -25.1875 38.625 C-24.63320313 38.34785156 -24.07890625 38.07070312 -23.5078125 37.78515625 C-20.734375 36.3984375 -17.9609375 35.01171875 -15.1875 33.625 C-16.54753181 38.0489237 -18.31704683 39.79790021 -22.0625 42.4375 C-30.92476787 49.33604233 -32.54126902 57.92927374 -33.99609375 68.70214844 C-34.73806669 76.155948 -32.95638786 83.4315227 -31.1875 90.625 C-34.3118444 88.03051518 -35.39055715 85.12613757 -36.8125 81.375 C-37.23789062 80.27671875 -37.66328125 79.1784375 -38.1015625 78.046875 C-40.01483565 72.01799988 -40.3252312 66.23307799 -40.3125 59.9375 C-40.31507812 58.65488281 -40.31765625 57.37226562 -40.3203125 56.05078125 C-40.1875 52.625 -40.1875 52.625 -39.69018555 50.67529297 C-39.16120916 48.51776812 -39.04632982 46.61287673 -39.01171875 44.39453125 C-38.51598267 25.55466082 -38.51598267 25.55466082 -31.9375 18.0625 C-31.36 17.588125 -30.7825 17.11375 -30.1875 16.625 C-32.0625 21.375 -32.0625 21.375 -33.1875 23.625 C-33.25815617 25.66555005 -33.27171976 27.70834257 -33.25 29.75 C-33.23646484 31.39355469 -33.23646484 31.39355469 -33.22265625 33.0703125 C-33.21105469 33.91335937 -33.19945312 34.75640625 -33.1875 35.625 C-32.8471875 34.98433594 -32.506875 34.34367187 -32.15625 33.68359375 C-28.20887244 26.63920455 -23.85092802 21.71057643 -17.109375 17.25 C-11.74441241 13.64605566 -9.29134315 9.84566816 -6.51171875 4.015625 C-4.87041807 1.0525689 -3.55334524 -0.6091449 0 0 Z " fill="#33B67F" transform="translate(65.1875,37.375)"/>
<path d="M0 0 C3.38933085 1.2980416 6.55311448 2.78663652 9.75 4.5 C22.22449932 10.72806373 34.78098969 9.88910812 48.1015625 6.65625 C51 6 51 6 54 6 C54.18175781 6.80824219 54.36351562 7.61648437 54.55078125 8.44921875 C54.80214844 9.51785156 55.05351563 10.58648437 55.3125 11.6875 C55.55613281 12.74324219 55.79976562 13.79898438 56.05078125 14.88671875 C56.99363297 17.97911718 58.29600713 20.27456603 60 23 C60 23.66 60 24.32 60 25 C59.34 25 58.68 25 58 25 C57.505 23.515 57.505 23.515 57 22 C48.17869636 21.06282946 41.97142078 22.29912452 34.29077148 26.42211914 C30.1624598 28.61940074 26.6800057 29.73161258 22 30 C18.5625 28.5625 18.5625 28.5625 16 27 C16 26.34 16 25.68 16 25 C14.70414084 25.42492126 13.4133956 25.86545882 12.125 26.3125 C11.04605469 26.67794922 11.04605469 26.67794922 9.9453125 27.05078125 C7.66005095 27.96335547 7.66005095 27.96335547 6 31 C5.01941648 29.54261898 4.04057868 28.08406325 3.0625 26.625 C2.51722656 25.81289062 1.97195312 25.00078125 1.41015625 24.1640625 C-1.3258484 19.96531853 -1.14923548 16.45402797 -1.125 11.5625 C-1.12886719 10.78583984 -1.13273437 10.00917969 -1.13671875 9.20898438 C-1.13099989 5.88918828 -1.05668831 3.17006494 0 0 Z " fill="#AED4F1" transform="translate(40,103)"/>
<path d="M0 0 C1.32 0.66 2.64 1.32 4 2 C3.51789063 2.54269531 3.03578125 3.08539063 2.5390625 3.64453125 C1.90742188 4.35996094 1.27578125 5.07539062 0.625 5.8125 C-0.00148437 6.52019531 -0.62796875 7.22789063 -1.2734375 7.95703125 C-3.140599 10.08803819 -3.140599 10.08803819 -5 13 C3.61738853 13.30654742 10.93475404 13.39589303 19 10 C19.55603656 17.3983753 18.62476907 22.53798609 15 29 C14.525625 29.86496094 14.05125 30.72992188 13.5625 31.62109375 C8.86680554 39.57894134 1.79878108 49.35273009 -7 53 C-5.49087042 48.01987239 -2.44338151 44.75740058 1 41 C0.34 41 -0.32 41 -1 41 C-1 40.34 -1 39.68 -1 39 C-1.58007812 38.96261719 -2.16015625 38.92523438 -2.7578125 38.88671875 C-7.81678864 38.46096333 -11.54279158 37.62861009 -16 35 C-16.47050781 35.433125 -16.94101563 35.86625 -17.42578125 36.3125 C-18.04839844 36.869375 -18.67101562 37.42625 -19.3125 38 C-19.92738281 38.556875 -20.54226562 39.11375 -21.17578125 39.6875 C-23 41 -23 41 -26 41 C-26 41.66 -26 42.32 -26 43 C-26.66 42.67 -27.32 42.34 -28 42 C-28 41.34 -28 40.68 -28 40 C-26.42578125 38.9921875 -26.42578125 38.9921875 -24.3125 37.875 C-17.69766542 33.85718674 -15.4704424 28.3158841 -12.875 21.25 C-9.9075089 13.72083163 -4.66438233 8.59494156 1 3 C0.34 3 -0.32 3 -1 3 C-0.67 2.01 -0.34 1.02 0 0 Z " fill="#AED5F1" transform="translate(157,98)"/>
<path d="M0 0 C1.33297049 0.19006233 2.66628857 0.37770866 4 0.5625 C4.99 0.706875 5.98 0.85125 7 1 C5.12262022 5.99187687 1.35543634 7.45234623 -3.1796875 9.796875 C-8.92090578 12.24603737 -13.35921151 11.20128331 -19 9 C-19 9.99 -19 10.98 -19 12 C-17.50532195 13.26722704 -16.00706333 14.53118019 -14.47265625 15.75 C-12.56084999 17.37275332 -11.66308394 18.56869223 -11 21 C-11.43478261 26.43478261 -11.43478261 26.43478261 -14 29 C-17.00285068 29.34458942 -19.09919236 29.57230634 -22 29 C-24.625 26.5625 -24.625 26.5625 -27 24 C-30.18150892 23.12010026 -30.18150892 23.12010026 -33 23 C-31.35 21.35 -29.7 19.7 -28 18 C-29.81772804 15.79015749 -29.81772804 15.79015749 -32.375 15.625 C-35.16430781 15.74459083 -35.16430781 15.74459083 -36.9375 18.0625 C-37.618125 18.701875 -38.29875 19.34125 -39 20 C-41.69921875 19.6875 -41.69921875 19.6875 -45 19 C-47.29114861 18.64249731 -49.58282223 18.28834354 -51.875 17.9375 C-53.60363281 17.67259766 -53.60363281 17.67259766 -55.3671875 17.40234375 C-56.23601562 17.26957031 -57.10484375 17.13679688 -58 17 C-54.70529252 13.70529252 -50.20140188 12.77443573 -45.87109375 11.21875 C-42.8894309 10.31934066 -42.8894309 10.31934066 -42 8 C-39.69197666 7.03710784 -37.42449298 6.18027808 -35.0625 5.375 C-34.41603516 5.14554687 -33.76957031 4.91609375 -33.10351562 4.6796875 C-28.28941127 3 -28.28941127 3 -26 3 C-25.505 3.495 -25.505 3.495 -25 4 C-24.67 3.34 -24.34 2.68 -24 2 C-21.5 1.3125 -21.5 1.3125 -19 1 C-18.505 1.495 -18.505 1.495 -18 2 C-17.67 1.34 -17.34 0.68 -17 0 C-11.28458817 -1.43823274 -5.73936135 -0.92570344 0 0 Z " fill="#E2EEF8" transform="translate(153,92)"/>
<path d="M0 0 C0 0.99 0 1.98 0 3 C0.66 3.66 1.32 4.32 2 5 C1.46890625 5.49628906 0.9378125 5.99257812 0.390625 6.50390625 C-5.35739834 12.03165863 -8.72832348 16.95693258 -11.8125 24.3125 C-15.42728022 32.47715802 -19.61596639 39.48257757 -28.0390625 43.17578125 C-32.88456375 44.52459492 -37.68233514 44.71571395 -42.6796875 44.859375 C-45.33907212 44.97200776 -47.48038297 45.21499369 -50 46 C-54.40774487 37.738041 -54.40774487 37.738041 -55 33 C-54.49210937 33.33773437 -53.98421875 33.67546875 -53.4609375 34.0234375 C-52.42839844 34.69246094 -52.42839844 34.69246094 -51.375 35.375 C-50.70210938 35.81585938 -50.02921875 36.25671875 -49.3359375 36.7109375 C-43.98063528 39.66620461 -39.16069323 40.27706204 -33.125 40.125 C-32.09246094 40.11146484 -32.09246094 40.11146484 -31.0390625 40.09765625 C-29.35922162 40.07432513 -27.67956254 40.03846326 -26 40 C-26 39.34 -26 38.68 -26 38 C-26.61488281 37.96261719 -27.22976562 37.92523438 -27.86328125 37.88671875 C-28.67152344 37.82097656 -29.47976562 37.75523437 -30.3125 37.6875 C-31.51326172 37.60048828 -31.51326172 37.60048828 -32.73828125 37.51171875 C-35.4356092 36.90144248 -36.40928647 36.24964988 -38 34 C-38 32.68 -38 31.36 -38 30 C-38.66 29.67 -39.32 29.34 -40 29 C-38.22950311 28.94589313 -36.45853151 28.90715881 -34.6875 28.875 C-33.70136719 28.85179688 -32.71523437 28.82859375 -31.69921875 28.8046875 C-29 29 -29 29 -26 31 C-25.34 31 -24.68 31 -24 31 C-24.495 28.525 -24.495 28.525 -25 26 C-23.88625 25.731875 -22.7725 25.46375 -21.625 25.1875 C-17.78159049 24.34190981 -17.78159049 24.34190981 -16 21 C-16.29893731 14.12444192 -20.27358311 10.55761629 -25 6 C-24.67 5.34 -24.34 4.68 -24 4 C-22.989375 4.33 -21.97875 4.66 -20.9375 5 C-15.99546683 6.34423302 -12.1074504 7.06299551 -7.3359375 4.65625 C-4.84196755 3.1668933 -2.40620233 1.62672834 0 0 Z " fill="#DD3833" transform="translate(157,96)"/>
<path d="M0 0 C1.32 0.33 2.64 0.66 4 1 C3.67 1.99 3.34 2.98 3 4 C4.423125 4.1546875 4.423125 4.1546875 5.875 4.3125 C10.73491554 4.9910919 15.33803874 6.5085476 20 8 C20 8.66 20 9.32 20 10 C21.093125 9.979375 22.18625 9.95875 23.3125 9.9375 C27 10 27 10 30 11 C30.80239884 14.20959534 31.29531307 16.25187355 30.0625 19.375 C27.44548445 21.43689104 25.27359987 21.61280364 21.984375 21.46875 C18.78414313 20.71278972 17.18142947 18.35364759 15 16 C11.81849108 15.12010026 11.81849108 15.12010026 9 15 C10.65 13.35 12.3 11.7 14 10 C12.18227196 7.79015749 12.18227196 7.79015749 9.625 7.625 C6.83569219 7.74459083 6.83569219 7.74459083 5.0625 10.0625 C4.0415625 11.0215625 4.0415625 11.0215625 3 12 C0.30078125 11.6875 0.30078125 11.6875 -3 11 C-5.29114861 10.64249731 -7.58282223 10.28834354 -9.875 9.9375 C-11.60363281 9.67259766 -11.60363281 9.67259766 -13.3671875 9.40234375 C-14.23601562 9.26957031 -15.10484375 9.13679688 -16 9 C-12.70529252 5.70529252 -8.20140188 4.77443573 -3.87109375 3.21875 C-0.8894309 2.31934066 -0.8894309 2.31934066 0 0 Z " fill="#C5DAEB" transform="translate(111,100)"/>
<path d="M0 0 C0.556875 0.66 1.11375 1.32 1.6875 2 C3.84062308 4.25492211 3.84062308 4.25492211 6.75 4.25 C7.4925 4.1675 8.235 4.085 9 4 C9.495 5.485 9.495 5.485 10 7 C3.4 7 -3.2 7 -10 7 C-5.00793322 8.47663807 -5.00793322 8.47663807 -0.00927734 9.93066406 C7.65021768 12.26020837 12.66182572 16.328514 17.875 22.25 C18.37257812 22.80429687 18.87015625 23.35859375 19.3828125 23.9296875 C20.59447749 25.28115999 21.79809664 26.6398389 23 28 C19.51645795 28 19.11572947 27.54964842 16.625 25.3125 C15.69494141 24.49072266 15.69494141 24.49072266 14.74609375 23.65234375 C13 22 13 22 10.6875 19.375 C3.18899603 12.7484151 -8.21606876 10.5836625 -18 11 C-17.51789063 11.40992188 -17.03578125 11.81984375 -16.5390625 12.2421875 C-15.59160156 13.05042969 -15.59160156 13.05042969 -14.625 13.875 C-13.99851562 14.40867187 -13.37203125 14.94234375 -12.7265625 15.4921875 C-11.44163349 16.61432007 -10.20628025 17.79371975 -9 19 C-13.45053103 18.77176764 -15.90175346 17.47542028 -19.375 14.875 C-22.55300592 12.62949497 -24.40326745 11.56019638 -28.3125 12.0625 C-29.529375 12.371875 -30.74625 12.68125 -32 13 C-32.825 13.185625 -33.65 13.37125 -34.5 13.5625 C-34.995 13.706875 -35.49 13.85125 -36 14 C-35.75 11.625 -35.75 11.625 -35 9 C-31.34329454 6.34487278 -26.79381826 6.36026506 -22.4375 5.9375 C-16.63839953 5.39650834 -16.63839953 5.39650834 -11 4 C-9.10529184 3.9314505 -7.2083166 3.91519628 -5.3125 3.9375 C-4.31863281 3.94652344 -3.32476562 3.95554688 -2.30078125 3.96484375 C-1.16189453 3.98224609 -1.16189453 3.98224609 0 4 C0 2.68 0 1.36 0 0 Z " fill="#7CC048" transform="translate(103,37)"/>
<path d="M0 0 C0.66 0.33 1.32 0.66 2 1 C1.62488281 1.4125 1.24976563 1.825 0.86328125 2.25 C-1.91617435 5.38651413 -4.28697268 8.38680532 -6.3125 12.0625 C-11.89693034 21.15915067 -22.37376746 23.90536479 -32 27 C-28.04 27 -24.08 27 -20 27 C-20.33 27.66 -20.66 28.32 -21 29 C-23.91264314 29.97088105 -25.79320643 30.12881418 -28.82421875 30.1328125 C-29.77103516 30.13410156 -30.71785156 30.13539063 -31.69335938 30.13671875 C-33.17545898 30.13091797 -33.17545898 30.13091797 -34.6875 30.125 C-35.65623047 30.12886719 -36.62496094 30.13273437 -37.62304688 30.13671875 C-43.17615797 30.12920947 -48.50728079 29.82097582 -54 29 C-54.33 28.01 -54.66 27.02 -55 26 C-53.948125 25.731875 -52.89625 25.46375 -51.8125 25.1875 C-47.31208475 23.78573131 -44.20261715 22.35779355 -41.0625 18.8125 C-39 17 -39 17 -35.75 16.75 C-34.38875 16.87375 -34.38875 16.87375 -33 17 C-33.78375 17.5775 -34.5675 18.155 -35.375 18.75 C-37.85984748 20.87986927 -38.70265139 22.11430871 -40 25 C-34.0854485 23.83625723 -28.55070059 22.35672204 -23 20 C-22.19433594 19.68546875 -21.38867188 19.3709375 -20.55859375 19.046875 C-14.2568074 16.31449741 -10.81213346 12.8874329 -6.76171875 7.3828125 C-4.71755949 4.61798512 -2.50178848 2.3454267 0 0 Z " fill="#3D9ED3" transform="translate(157,138)"/>
<path d="M0 0 C0.96099609 0.30744141 0.96099609 0.30744141 1.94140625 0.62109375 C2.80636719 0.89050781 3.67132813 1.15992187 4.5625 1.4375 C5.40941406 1.70433594 6.25632812 1.97117187 7.12890625 2.24609375 C12.8217968 3.74096161 18.37761672 4.12284285 24.24609375 4.09765625 C24.90207047 4.0962413 25.55804718 4.09482635 26.23390198 4.09336853 C28.30181702 4.08783031 30.36961842 4.07529002 32.4375 4.0625 C33.85090988 4.05747699 35.26432148 4.0529155 36.67773438 4.04882812 C40.11852568 4.03788126 43.55925172 4.02066038 47 4 C47.495 6.475 47.495 6.475 48 9 C32.03257047 13.83338407 18.91507153 12.61162668 3.99609375 5.37890625 C1.73122968 3.81433283 0.99489612 2.53295173 0 0 Z " fill="#65B2E2" transform="translate(41,101)"/>
<path d="M0 0 C-3 2 -3 2 -6.6875 3.25 C-11.70646125 5.64876824 -13.7413894 10.10248862 -16.12182617 14.87207031 C-18.66632289 19.88688016 -21.26468542 22.90840297 -26.53515625 25.01171875 C-27.36917969 25.23472656 -28.20320313 25.45773438 -29.0625 25.6875 C-29.89910156 25.91824219 -30.73570313 26.14898437 -31.59765625 26.38671875 C-33.73018947 26.93112154 -35.86334513 27.47200446 -38 28 C-38 26.68 -38 25.36 -38 24 C-39.32 25.98 -40.64 27.96 -42 30 C-42.75 28.375 -42.75 28.375 -43 26 C-40.2611098 20.89694339 -37.56436282 18.86818349 -32.375 16.4375 C-27.57800376 14.33500448 -27.57800376 14.33500448 -24.6015625 10.28515625 C-24.40304688 9.53105469 -24.20453125 8.77695313 -24 8 C-23.67 8 -23.34 8 -23 8 C-23.36923077 14.4 -23.36923077 14.4 -26.5625 17.4375 C-27.7690625 18.2109375 -27.7690625 18.2109375 -29 19 C-26.70218446 19.11635105 -26.70218446 19.11635105 -24 18 C-21.74429889 15.52054302 -19.91313147 12.74768627 -18 10 C-13.25349737 3.59979566 -8.57271181 -0.77933744 0 0 Z " fill="#459ABF" transform="translate(80,64)"/>
<path d="M0 0 C0 0.66 0 1.32 0 2 C-0.66 2.66 -1.32 3.32 -2 4 C-1.67 4.78375 -1.34 5.5675 -1 6.375 C0 9 0 9 0 11 C0.99 11.825 1.98 12.65 3 13.5 C3.99 14.325 4.98 15.15 6 16 C6 16.66 6 17.32 6 18 C3.03 17.67 0.06 17.34 -3 17 C-3 16.34 -3 15.68 -3 15 C-3.66 15.061875 -4.32 15.12375 -5 15.1875 C-8.39668074 14.97520745 -10.91169943 14.03421429 -14.03515625 12.75390625 C-16.00370367 11.99857891 -17.94678326 11.47100518 -20 11 C-19.80859375 8.64453125 -19.80859375 8.64453125 -19 6 C-16.78515625 4.63671875 -16.78515625 4.63671875 -14.0625 3.6875 C-13.16660156 3.36136719 -12.27070312 3.03523438 -11.34765625 2.69921875 C-9 2 -9 2 -7 2 C-6.67 2.33 -6.34 2.66 -6 3 C-5.67 2.34 -5.34 1.68 -5 1 C-2 0 -2 0 0 0 Z " fill="#D4E5F3" transform="translate(134,93)"/>
<path d="M0 0 C4.29 0.66 8.58 1.32 13 2 C14 8 14 8 13.0625 10.375 C10.44548445 12.43689104 8.27359987 12.61280364 4.984375 12.46875 C1.78414313 11.71278972 0.18142947 9.35364759 -2 7 C-5.18150892 6.12010026 -5.18150892 6.12010026 -8 6 C-6.49736177 2.99472353 -4.08347159 3.02782386 -1 2 C-0.67 1.34 -0.34 0.68 0 0 Z " fill="#B7DAF2" transform="translate(128,109)"/>
<path d="M0 0 C2.5 0.4375 2.5 0.4375 4.3125 2.4375 C4.704375 3.0975 5.09625 3.7575 5.5 4.4375 C-1 8.4375 -1 8.4375 -5.5 8.4375 C-3.025 8.9325 -3.025 8.9325 -0.5 9.4375 C-0.5 9.7675 -0.5 10.0975 -0.5 10.4375 C-2.15 10.4375 -3.8 10.4375 -5.5 10.4375 C-6.16 11.7575 -6.82 13.0775 -7.5 14.4375 C-8.16 14.4375 -8.82 14.4375 -9.5 14.4375 C-9.83 13.1175 -10.16 11.7975 -10.5 10.4375 C-11.49 10.4375 -12.48 10.4375 -13.5 10.4375 C-13.5 9.4475 -13.5 8.4575 -13.5 7.4375 C-14.49 7.4375 -15.48 7.4375 -16.5 7.4375 C-16.9125 6.963125 -17.325 6.48875 -17.75 6 C-20.37524834 3.65602827 -23.08502942 3.75966704 -26.5 3.4375 C-26.5 3.1075 -26.5 2.7775 -26.5 2.4375 C-24.77119018 2.38300162 -23.04187288 2.34448312 -21.3125 2.3125 C-20.34957031 2.28929688 -19.38664062 2.26609375 -18.39453125 2.2421875 C-15.36025609 2.44692941 -13.27568232 3.25465405 -10.5 4.4375 C-7.5462776 4.22651983 -6.07123014 4.0325314 -4 1.875 C-2.5 0.4375 -2.5 0.4375 0 0 Z " fill="#ED2E2A" transform="translate(120.5,106.5625)"/>
<path d="M0 0 C11.07341092 0.19427037 11.07341092 0.19427037 14.875 3.5 C15.57625 4.325 16.2775 5.15 17 6 C20.18150892 6.87989974 20.18150892 6.87989974 23 7 C21.02 7.99 21.02 7.99 19 9 C19 10.32 19 11.64 19 13 C18.01 13.33 17.02 13.66 16 14 C14.29181597 13.0727001 12.63377642 12.05287814 11 11 C8.93275598 10.0299855 6.85837175 9.08276075 4.76953125 8.16015625 C1.73394672 6.16993858 1.1140047 3.34201409 0 0 Z " fill="#D36D6C" transform="translate(114,114)"/>
<path d="M0 0 C0.50789063 0.33773437 1.01578125 0.67546875 1.5390625 1.0234375 C11.50935512 7.48358964 20.43105417 8.05670148 32 6 C28.70746422 9.81240985 25.33105314 10.86102029 20.37109375 11.37890625 C19.07300781 11.43949219 17.77492188 11.50007812 16.4375 11.5625 C10.64178971 11.79515754 10.64178971 11.79515754 5 13 C0.59225513 4.738041 0.59225513 4.738041 0 0 Z " fill="#F24127" transform="translate(102,129)"/>
<path d="M0 0 C0 0.99 0 1.98 0 3 C0.66 3.66 1.32 4.32 2 5 C-5.81657281 12.16331456 -5.81657281 12.16331456 -10 13 C-13.5 12.25 -13.5 12.25 -17 11 C-17.9075 10.690625 -18.815 10.38125 -19.75 10.0625 C-22.02960024 8.98602211 -23.36318824 7.89525572 -25 6 C-24.67 5.34 -24.34 4.68 -24 4 C-22.989375 4.33 -21.97875 4.66 -20.9375 5 C-15.99546683 6.34423302 -12.1074504 7.06299551 -7.3359375 4.65625 C-4.84196755 3.1668933 -2.40620233 1.62672834 0 0 Z " fill="#EA5349" transform="translate(157,96)"/>
<path d="M0 0 C2.49361571 1.20381448 4.68143083 2.45428722 7 4 C6.34 4.66 5.68 5.32 5 6 C5.7940625 6.50789063 6.588125 7.01578125 7.40625 7.5390625 C8.4271875 8.22742188 9.448125 8.91578125 10.5 9.625 C12.03140625 10.63433594 12.03140625 10.63433594 13.59375 11.6640625 C16 14 16 14 16.34375 17.2734375 C16.2303125 18.17320312 16.116875 19.07296875 16 20 C17.98 20.66 19.96 21.32 22 22 C21.34 22.33 20.68 22.66 20 23 C10.631075 19.4645566 5.33293544 15.24227056 1 6 C0.25 2.5625 0.25 2.5625 0 0 Z " fill="#E57E76" transform="translate(94,113)"/>
<path d="M0 0 C0.66 1.32 1.32 2.64 2 4 C2.7425 3.608125 3.485 3.21625 4.25 2.8125 C5.1575 2.544375 6.065 2.27625 7 2 C9 3.25 9 3.25 11 5 C12.64797236 5.71162443 14.31165408 6.39031953 16 7 C16 7.33 16 7.66 16 8 C14.02 8.33 12.04 8.66 10 9 C10.33 10.98 10.66 12.96 11 15 C8.42123065 14.65151766 6.49876597 14.36448283 4.375 12.8125 C1.28203859 8.7354145 -0.45570994 5.16471265 0 0 Z " fill="#EB413A" transform="translate(109,117)"/>
<path d="M0 0 C14.92497612 2.12760298 22.53568532 8.8932527 32 20 C28.51645795 20 28.11572947 19.54964842 25.625 17.3125 C25.00496094 16.76464844 24.38492188 16.21679688 23.74609375 15.65234375 C22 14 22 14 19.6875 11.375 C13.68950762 6.0744486 5.68659123 4.48772734 -2 3 C-1.34 2.67 -0.68 2.34 0 2 C0 1.34 0 0.68 0 0 Z " fill="#89C33B" transform="translate(94,45)"/>
<path d="M0 0 C0.86625 0.433125 1.7325 0.86625 2.625 1.3125 C8.45176313 3.84587527 14.79589211 4.78671399 21 6 C21 6.66 21 7.32 21 8 C17.68929162 9.00109515 14.69915231 9.10356134 11.25 9.0625 C10.26515625 9.05347656 9.2803125 9.04445312 8.265625 9.03515625 C7.51796875 9.02355469 6.7703125 9.01195312 6 9 C5.67 8.34 5.34 7.68 5 7 C3.7625 6.566875 3.7625 6.566875 2.5 6.125 C0 5 0 5 -0.875 2.9375 C-0.91625 2.298125 -0.9575 1.65875 -1 1 C-0.67 0.67 -0.34 0.34 0 0 Z " fill="#E26F69" transform="translate(110,128)"/>
<path d="M0 0 C0.33 0 0.66 0 1 0 C1.12117188 0.63808594 1.24234375 1.27617188 1.3671875 1.93359375 C1.53476562 2.75988281 1.70234375 3.58617188 1.875 4.4375 C2.03742187 5.26121094 2.19984375 6.08492188 2.3671875 6.93359375 C2.57601563 7.61550781 2.78484375 8.29742187 3 9 C3.66 9.33 4.32 9.66 5 10 C5.33 9.01 5.66 8.02 6 7 C5.938125 8.175625 5.87625 9.35125 5.8125 10.5625 C5.77910697 17.50824948 7.50660782 24.25306745 9 31 C3.54647859 26.47134479 1.61069064 17.86554838 0.1875 11.1875 C-0.03278971 7.44257486 -0.06580765 3.75103611 0 0 Z " fill="#15AC98" transform="translate(25,97)"/>
<path d="M0 0 C0.66 0.28875 1.32 0.5775 2 0.875 C8.65027521 3.63301938 8.65027521 3.63301938 15.5 3.125 C16.2425 2.568125 16.2425 2.568125 17 2 C15.59835111 6.76560621 12.84588526 9.95882443 9 13 C8.34 13 7.68 13 7 13 C6.38125 11.1746875 6.38125 11.1746875 5.75 9.3125 C4.3839438 5.63264526 2.65605232 2.93081636 0 0 Z " fill="#EC382E" transform="translate(135,104)"/>
<path d="M0 0 C0.8971875 0.309375 0.8971875 0.309375 1.8125 0.625 C1.36261719 1.01300781 0.91273437 1.40101562 0.44921875 1.80078125 C-1.5235986 3.99960154 -2.33641897 6.05488829 -3.375 8.8125 C-3.71917969 9.71355469 -4.06335937 10.61460938 -4.41796875 11.54296875 C-4.67191406 12.23003906 -4.92585938 12.91710938 -5.1875 13.625 C-5.5175 12.965 -5.8475 12.305 -6.1875 11.625 C-7.115625 12.470625 -8.04375 13.31625 -9 14.1875 C-10.58203125 15.62890625 -10.58203125 15.62890625 -12.1875 16.625 C-13.1775 16.295 -14.1675 15.965 -15.1875 15.625 C-14.465625 14.985625 -13.74375 14.34625 -13 13.6875 C-10.00629514 10.73619889 -8.26820615 7.34654417 -6.3984375 3.61328125 C-4.72185428 0.86043977 -3.31843553 -0.56887466 0 0 Z " fill="#6FBE5C" transform="translate(65.1875,37.375)"/>
<path d="M0 0 C-4.06536656 1.28924819 -7.41275276 0.67219967 -11.5625 0.05859375 C-15.07147038 -0.0257565 -17.03871056 1.30389386 -19.8125 3.3125 C-21.23681147 4.9831299 -21.23681147 4.9831299 -20.953125 7.3984375 C-20.1979978 10.25610213 -20.1979978 10.25610213 -17.27734375 11.80078125 C-16.17519531 12.29964844 -15.07304688 12.79851562 -13.9375 13.3125 C-12.28041016 14.08013672 -12.28041016 14.08013672 -10.58984375 14.86328125 C-9.73519531 15.23839844 -8.88054687 15.61351563 -8 16 C-11 17 -11 17 -13.41015625 16.07421875 C-14.28542969 15.61660156 -15.16070312 15.15898438 -16.0625 14.6875 C-16.94035156 14.23761719 -17.81820312 13.78773437 -18.72265625 13.32421875 C-21 12 -21 12 -23 10 C-23.5 6.6875 -23.5 6.6875 -23 3 C-16.91806682 -4.52239104 -8.35914656 -2.90752924 0 0 Z " fill="#4DADDF" transform="translate(104,75)"/>
<path d="M0 0 C3 1 3 1 4 3 C4.25797575 6.95562822 4.09440189 9.59659693 2 13 C1.34 13 0.68 13 0 13 C-2.09429461 9.59677126 -2.33706208 6.96047946 -2 3 C-1.34 2.01 -0.68 1.02 0 0 Z " fill="#48B86C" transform="translate(51,37)"/>
<path d="M0 0 C1.91750286 0.08743331 3.83406665 0.1956189 5.75 0.3125 C6.81734375 0.37050781 7.8846875 0.42851563 8.984375 0.48828125 C12.1821068 1.03090154 13.62598691 1.85071145 16 4 C15.67 4.99 15.34 5.98 15 7 C14.34 6.01 13.68 5.02 13 4 C10.44816596 2.79549696 10.44816596 2.79549696 8 2 C8 4.31 8 6.62 8 9 C3.34115139 7.52878465 3.34115139 7.52878465 1.75 5.0625 C1.13982506 3.3845189 0.56461793 1.69385378 0 0 Z " fill="#D9605E" transform="translate(114,114)"/>
<path d="M0 0 C2.24145712 2.13535264 4.06787824 4.36456599 5.875 6.875 C8.35733918 10.23856958 10.9589492 13.13783454 14 16 C8.04265213 14.65959673 4.09074263 11.37221574 0 7 C-1.5 4.0625 -1.5 4.0625 -2 2 C-1.34 2 -0.68 2 0 2 C0 1.34 0 0.68 0 0 Z " fill="#277AB8" transform="translate(45,147)"/>
<path d="M0 0 C0.98484375 0.01804688 1.9696875 0.03609375 2.984375 0.0546875 C4.10585937 0.08949219 4.10585937 0.08949219 5.25 0.125 C3.27 1.115 3.27 1.115 1.25 2.125 C1.25 2.785 1.25 3.445 1.25 4.125 C-2.71 5.115 -6.67 6.105 -10.75 7.125 C-9.75 2.125 -9.75 2.125 -8.046875 0.8203125 C-5.2614721 -0.0228877 -2.90659417 -0.06920462 0 0 Z " fill="#70BE52" transform="translate(77.75,43.875)"/>
<path d="M0 0 C0.33 0.99 0.66 1.98 1 3 C-5.625 6.125 -5.625 6.125 -9 5 C-9 3.68 -9 2.36 -9 1 C-10.32 0.67 -11.64 0.34 -13 0 C-8.37078475 -1.0161692 -4.65537393 -0.83796731 0 0 Z " fill="#7FB9E5" transform="translate(97,104)"/>
<path d="M0 0 C1.051875 -0.00386719 1.051875 -0.00386719 2.125 -0.0078125 C4 0.125 4 0.125 6 1.125 C5.34 2.445 4.68 3.765 4 5.125 C2.54176788 5.1520043 1.08339325 5.17139787 -0.375 5.1875 C-1.18710938 5.19910156 -1.99921875 5.21070312 -2.8359375 5.22265625 C-5 5.125 -5 5.125 -7 4.125 C-6.67 3.135 -6.34 2.145 -6 1.125 C-3.75487738 0.00243869 -2.48543351 -0.00913762 0 0 Z " fill="#42B567" transform="translate(77,67.875)"/>
<path d="M0 0 C2.3125 -0.25 2.3125 -0.25 5 0 C6.97610386 2.04424538 8 3.1176825 8 6 C8.61875 6.268125 9.2375 6.53625 9.875 6.8125 C12 8 12 8 14 11 C9.9255567 11 7.88254967 8.90830751 4.8125 6.5 C3.97428711 5.85611328 3.97428711 5.85611328 3.11914062 5.19921875 C1.74114153 4.13921945 0.36990593 3.07043812 -1 2 C-0.67 1.34 -0.34 0.68 0 0 Z " fill="#D3554D" transform="translate(99,117)"/>
<path d="M0 0 C0.99 0.66 1.98 1.32 3 2 C3.3984375 4.09375 3.3984375 4.09375 3.375 6.5 C3.38273437 7.2940625 3.39046875 8.088125 3.3984375 8.90625 C3.26695313 9.5971875 3.13546875 10.288125 3 11 C2.01 11.66 1.02 12.32 0 13 C-2 11 -2 11 -2.265625 8.90625 C-2.25789063 7.71515625 -2.25789063 7.71515625 -2.25 6.5 C-2.25515625 5.7059375 -2.2603125 4.911875 -2.265625 4.09375 C-2 2 -2 2 0 0 Z " fill="#42B566" transform="translate(29,44)"/>
<path d="M0 0 C0.53625 0.495 1.0725 0.99 1.625 1.5 C1.05652344 1.47679687 0.48804687 1.45359375 -0.09765625 1.4296875 C-5.29969601 1.30810393 -9.35136057 2.03857762 -14.375 3.5 C-17.06894253 3.66182694 -19.67262418 3.5948202 -22.375 3.5 C-21.385 3.17 -20.395 2.84 -19.375 2.5 C-19.375 1.84 -19.375 1.18 -19.375 0.5 C-4.04542381 -2.55500451 -4.04542381 -2.55500451 0 0 Z " fill="#4AB567" transform="translate(68.375,61.5)"/>
<path d="M0 0 C4.6875 0.78125 4.6875 0.78125 9.375 1.5625 C10.674375 1.7790625 10.674375 1.7790625 12 2 C12 2.66 12 3.32 12 4 C13.65 4.33 15.3 4.66 17 5 C17 5.66 17 6.32 17 7 C14 8 14 8 11 7 C11 6.34 11 5.68 11 5 C8.36 5 5.72 5 3 5 C2.67 4.01 2.34 3.02 2 2 C1.34 1.34 0.68 0.68 0 0 Z " fill="#9DCCEE" transform="translate(93,96)"/>
<path d="M0 0 C1.35303489 2.70606979 0.7884698 4.1328371 0 7 C-0.66 7.66 -1.32 8.32 -2 9 C-2.28875 9.969375 -2.5775 10.93875 -2.875 11.9375 C-4.09098878 15.24769167 -5.03639805 16.22183883 -8 18 C-7.45960463 13.44041411 -6.26620958 10.16970963 -4 6.1875 C-3.46375 5.23230469 -2.9275 4.27710937 -2.375 3.29296875 C-1 1 -1 1 0 0 Z " fill="#2273AC" transform="translate(42,87)"/>
<path d="M0 0 C-2.38930589 1.59287059 -4.34222214 2.58662398 -6.9375 3.6875 C-11.51660762 5.90157401 -12.73521154 8.55430414 -15 13 C-15.99 13.33 -16.98 13.66 -18 14 C-17.9260095 10.8923991 -17.63075777 8.72426634 -15.55078125 6.3359375 C-10.70280122 2.06634988 -6.62437062 -0.37853546 0 0 Z " fill="#5BAEC3" transform="translate(80,64)"/>
<path d="M0 0 C-5.08663675 2.95949775 -8.95559774 4.78353363 -15 4 C-18.4375 2.5 -18.4375 2.5 -21 1 C-17.13724657 -0.28758448 -13.73173456 -0.02545273 -9.69140625 0.0625 C-7.06227713 0.10443002 -7.06227713 0.10443002 -4.83984375 -0.5625 C-3 -1 -3 -1 0 0 Z " fill="#EB3733" transform="translate(134,136)"/>
<path d="M0 0 C0 0.99 0 1.98 0 3 C0.66 3.66 1.32 4.32 2 5 C-0.0625 7.0625 -0.0625 7.0625 -3 9 C-6.8125 8.75 -6.8125 8.75 -10 8 C-10 7.34 -10 6.68 -10 6 C-7.8125 4.4921875 -7.8125 4.4921875 -5 2.875 C-4.071875 2.33617188 -3.14375 1.79734375 -2.1875 1.2421875 C-1.465625 0.83226563 -0.74375 0.42234375 0 0 Z " fill="#E47973" transform="translate(157,96)"/>
<path d="M0 0 C0.33 1.32 0.66 2.64 1 4 C-0.8871875 4.309375 -0.8871875 4.309375 -2.8125 4.625 C-8.80429237 5.92258561 -13.77285499 8.89302409 -19 12 C-17.18451901 7.97400281 -14.94094811 5.93450191 -11 4 C-8.37734034 3.10329639 -5.75151959 2.32962931 -3.07421875 1.61328125 C-1.02888055 1.18808023 -1.02888055 1.18808023 0 0 Z " fill="#E9F3F6" transform="translate(59,85)"/>
<path d="M0 0 C0.66 0.99 1.32 1.98 2 3 C1.60167969 3.58007812 1.20335937 4.16015625 0.79296875 4.7578125 C-2.12751607 9.0639288 -4.81884446 13.274163 -7 18 C-8.49615751 13.51152748 -6.89895514 10.21353066 -5 6 C-3.4741532 3.77235423 -1.86730847 1.96824406 0 0 Z " fill="#EDF6F5" transform="translate(40,81)"/>
<path d="M0 0 C0.8353125 0.99 0.8353125 0.99 1.6875 2 C3.84062308 4.25492211 3.84062308 4.25492211 6.75 4.25 C7.4925 4.1675 8.235 4.085 9 4 C9.33 4.99 9.66 5.98 10 7 C3.8894576 7.11269443 -1.95170514 6.89604368 -8 6 C-8 5.67 -8 5.34 -8 5 C-5.36 4.67 -2.72 4.34 0 4 C0 2.68 0 1.36 0 0 Z " fill="#99D39D" transform="translate(103,37)"/>
<path d="M0 0 C0.66 0.33 1.32 0.66 2 1 C-2.26739277 4.12832081 -5.45674009 4.37910125 -10.6875 4.3125 C-11.36361328 4.31572266 -12.03972656 4.31894531 -12.73632812 4.32226562 C-17.73241795 4.26758205 -17.73241795 4.26758205 -20 2 C-9.38123866 0.9246824 -9.38123866 0.9246824 -4.9375 1 C-2.06521865 1.21894832 -2.06521865 1.21894832 0 0 Z " fill="#398DC6" transform="translate(92,152)"/>
<path d="M0 0 C3 1 3 1 4 3 C4.04022391 5.3329866 4.04320247 7.66706666 4 10 C2.68 10 1.36 10 0 10 C-1.36952673 7.26094655 -1.12621361 5.02912668 -1 2 C-0.67 1.34 -0.34 0.68 0 0 Z " fill="#44B667" transform="translate(110,55)"/>
<path d="M0 0 C0.33 0.66 0.66 1.32 1 2 C0.67 2.66 0.34 3.32 0 4 C-2.97 4 -5.94 4 -9 4 C-9 4.66 -9 5.32 -9 6 C-13.29 5.34 -17.58 4.68 -22 4 C-22 3.67 -22 3.34 -22 3 C-20.74703125 2.95101562 -19.4940625 2.90203125 -18.203125 2.8515625 C-16.55206179 2.77651417 -14.90102119 2.70096723 -13.25 2.625 C-12.425 2.5940625 -11.6 2.563125 -10.75 2.53125 C-9.95078125 2.49257812 -9.1515625 2.45390625 -8.328125 2.4140625 C-7.22839355 2.36693115 -7.22839355 2.36693115 -6.10644531 2.31884766 C-3.75077082 1.96227477 -2.06549409 1.16337117 0 0 Z " fill="#73BAEB" transform="translate(93,153)"/>
<path d="M0 0 C1.32 0.66 2.64 1.32 4 2 C3.56429687 2.4846875 3.12859375 2.969375 2.6796875 3.46875 C-1.47146757 8.14104575 -5.32827496 12.9429721 -9 18 C-9.33 17.01 -9.66 16.02 -10 15 C-6.37 11.04 -2.74 7.08 1 3 C0.34 3 -0.32 3 -1 3 C-0.67 2.01 -0.34 1.02 0 0 Z " fill="#D3E6F1" transform="translate(157,98)"/>
<path d="M0 0 C0.66 0.33 1.32 0.66 2 1 C1.75 4.375 1.75 4.375 1 8 C-1.0625 9.4375 -1.0625 9.4375 -3 10 C-3.75 7.8125 -3.75 7.8125 -4 5 C-2.0625 2.1875 -2.0625 2.1875 0 0 Z " fill="#4AB96D" transform="translate(87,56)"/>
<path d="M0 0 C0 3 0 3 -1.390625 4.75390625 C-2.00421875 5.35074219 -2.6178125 5.94757813 -3.25 6.5625 C-3.85328125 7.16191406 -4.4565625 7.76132813 -5.078125 8.37890625 C-6.97121638 9.97572113 -8.74536429 10.99738545 -11 12 C-9.16120131 6.9079421 -7.65027358 3.90603255 -2.8125 1.25 C-1.884375 0.8375 -0.95625 0.425 0 0 Z " fill="#9ACBEB" transform="translate(161,139)"/>
<path d="M0 0 C3.02246211 0.79538477 3.80884094 1.98725843 5.375 4.625 C2.5625 5.75 2.5625 5.75 -0.625 6.625 C-1.615 5.965 -2.605 5.305 -3.625 4.625 C-5.605 5.615 -5.605 5.615 -7.625 6.625 C-3.38130252 0.80507203 -3.38130252 0.80507203 0 0 Z " fill="#EF291F" transform="translate(120.625,106.375)"/>
<path d="M0 0 C1.60463449 0.31008884 3.20869231 0.62316287 4.8125 0.9375 C5.70582031 1.11152344 6.59914063 1.28554688 7.51953125 1.46484375 C10 2 10 2 13 3 C12.67 3.99 12.34 4.98 12 6 C7.38 5.01 2.76 4.02 -2 3 C-1.34 2.67 -0.68 2.34 0 2 C0 1.34 0 0.68 0 0 Z " fill="#8FC751" transform="translate(94,45)"/>
<path d="M0 0 C3.63 0.66 7.26 1.32 11 2 C11 2.66 11 3.32 11 4 C7.68929162 5.00109515 4.69915231 5.10356134 1.25 5.0625 C0.26515625 5.05347656 -0.7196875 5.04445312 -1.734375 5.03515625 C-2.48203125 5.02355469 -3.2296875 5.01195312 -4 5 C-4 4.67 -4 4.34 -4 4 C-2.35 4 -0.7 4 1 4 C0.67 2.68 0.34 1.36 0 0 Z " fill="#DA5555" transform="translate(120,132)"/>
<path d="M0 0 C2.64 0 5.28 0 8 0 C8.66 1.32 9.32 2.64 10 4 C4.62295082 5.3442623 4.62295082 5.3442623 1.625 3.6875 C0 2 0 2 0 0 Z " fill="#45B76B" transform="translate(60,86)"/>
<path d="M0 0 C-0.60714286 5.46428571 -0.60714286 5.46428571 -2.375 7.875 C-4 9 -4 9 -7 9 C-6.53149863 4.78348764 -4.94559315 0 0 0 Z " fill="#46B86A" transform="translate(95,32)"/>
<path d="M0 0 C0.53109375 0.33773437 1.0621875 0.67546875 1.609375 1.0234375 C2.31578125 1.46945313 3.0221875 1.91546875 3.75 2.375 C4.79414062 3.03628906 4.79414062 3.03628906 5.859375 3.7109375 C7.86517383 4.91880906 9.89178296 5.98387737 12 7 C11.67 7.33 11.34 7.66 11 8 C9.47480724 7.91062197 7.95318071 7.75462854 6.4375 7.5625 C5.19806641 7.40974609 5.19806641 7.40974609 3.93359375 7.25390625 C3.29550781 7.17011719 2.65742187 7.08632812 2 7 C1.34 4.69 0.68 2.38 0 0 Z " fill="#CB3935" transform="translate(102,129)"/>
<path d="M0 0 C0.99 0.66 1.98 1.32 3 2 C2.67 3.65 2.34 5.3 2 7 C1.67 6.34 1.34 5.68 1 5 C0.071875 5.845625 -0.85625 6.69125 -1.8125 7.5625 C-3.39453125 9.00390625 -3.39453125 9.00390625 -5 10 C-5.99 9.67 -6.98 9.34 -8 9 C-6.8553125 7.88625 -6.8553125 7.88625 -5.6875 6.75 C-3.5606298 4.5736677 -1.7440044 2.47832204 0 0 Z " fill="#64BC65" transform="translate(58,44)"/>
<path d="M0 0 C0.515625 0.268125 1.03125 0.53625 1.5625 0.8125 C4.66401415 2.32349407 7.82262806 3.65572726 11 5 C11 5.33 11 5.66 11 6 C3.61538462 6.36923077 3.61538462 6.36923077 0.5 4.5 C0.005 4.005 -0.49 3.51 -1 3 C-0.67 2.01 -0.34 1.02 0 0 Z " fill="#EE6447" transform="translate(114,119)"/>
<path d="M0 0 C0.33 0.66 0.66 1.32 1 2 C0.29296875 4.09375 0.29296875 4.09375 -0.8125 6.5 C-1.16957031 7.2940625 -1.52664062 8.088125 -1.89453125 8.90625 C-3 11 -3 11 -5 13 C-6.125 5.25 -6.125 5.25 -5 3 C-3.35857037 1.9590934 -1.69287785 0.95495674 0 0 Z " fill="#E0624D" transform="translate(146,114)"/>
<path d="M0 0 C0.66 0.33 1.32 0.66 2 1 C1.60167969 1.43570313 1.20335937 1.87140625 0.79296875 2.3203125 C-2.48936831 6.00994686 -4.99399746 9.43077198 -7 14 C-7.33 13.34 -7.66 12.68 -8 12 C-8.66 11.67 -9.32 11.34 -10 11 C-8.52116808 9.35386588 -7.04192523 7.70810092 -5.5625 6.0625 C-4.73878906 5.14597656 -3.91507813 4.22945312 -3.06640625 3.28515625 C-1 1 -1 1 0 0 Z " fill="#43A3D6" transform="translate(157,138)"/>
<path d="M0 0 C2.78211944 0.37596209 4.5879284 0.67318459 6.8125 2.4375 C8 4 8 4 8 6 C5.21788056 5.62403791 3.4120716 5.32681541 1.1875 3.5625 C0 2 0 2 0 0 Z " fill="#50BA72" transform="translate(42,46)"/>
<path d="M0 0 C-0.99 0.33 -1.98 0.66 -3 1 C-4.16953416 3.42383077 -4.16953416 3.42383077 -5 6 C-5.33 6.66 -5.66 7.32 -6 8 C-6.66 8 -7.32 8 -8 8 C-8 5.69 -8 3.38 -8 1 C-3.375 -1.125 -3.375 -1.125 0 0 Z " fill="#4092BF" transform="translate(47,95)"/>
<path d="M0 0 C0.33 0 0.66 0 1 0 C1.99 4.95 2.98 9.9 4 15 C1.2574043 12.2574043 0.49792802 11.25588615 -0.6875 7.8125 C-0.93886719 7.09707031 -1.19023437 6.38164063 -1.44921875 5.64453125 C-1.63097656 5.10183594 -1.81273438 4.55914062 -2 4 C-1.34 4 -0.68 4 0 4 C0 2.68 0 1.36 0 0 Z " fill="#1CAAA0" transform="translate(30,113)"/>
<path d="M0 0 C0 0.99 0 1.98 0 3 C-0.33 3.33 -0.66 3.66 -1 4 C-3.33944736 3.71269945 -5.6739143 3.38063221 -8 3 C-8 2.34 -8 1.68 -8 1 C-5.29120665 -0.35439668 -2.99066732 -0.06501451 0 0 Z " fill="#46B96B" transform="translate(56,94)"/>
<path d="M0 0 C3.875 1.875 3.875 1.875 5 3 C5.04063832 4.66617115 5.042721 6.33388095 5 8 C1.125 6.125 1.125 6.125 0 5 C-0.04063832 3.33382885 -0.042721 1.66611905 0 0 Z " fill="#45B769" transform="translate(82,34)"/>
<path d="M0 0 C3.45561452 1.53582868 6.28213525 3.35763149 9 6 C9.3125 8.75 9.3125 8.75 9 11 C5.36440339 7.56638098 2.63886654 4.2026393 0 0 Z " fill="#C5DEF4" transform="translate(145,27)"/>
<path d="M0 0 C3.625 0.375 3.625 0.375 7 1 C7 1.66 7 2.32 7 3 C3.625 3.625 3.625 3.625 0 4 C-0.66 3.34 -1.32 2.68 -2 2 C-1.34 1.34 -0.68 0.68 0 0 Z " fill="#42B665" transform="translate(69,57)"/>
<path d="M0 0 C0.33 0.66 0.66 1.32 1 2 C-0.5625 4.5 -0.5625 4.5 -3 7 C-6.75 7.3125 -6.75 7.3125 -10 7 C-8.72070154 4.44140308 -7.55728932 4.13851266 -5 2.9375 C-2.30092276 1.75531476 -2.30092276 1.75531476 0 0 Z " fill="#20AF72" transform="translate(49,71)"/>
<path d="M0 0 C3 0 3 0 4.82421875 1.75 C5.43910156 2.4925 6.05398437 3.235 6.6875 4 C7.31011719 4.7425 7.93273437 5.485 8.57421875 6.25 C9.04472656 6.8275 9.51523438 7.405 10 8 C6.45595664 8 5.89732095 7.39010515 3.3125 5.125 C2.68988281 4.59132813 2.06726563 4.05765625 1.42578125 3.5078125 C0 2 0 2 0 0 Z " fill="#90C64C" transform="translate(116,57)"/>
<path d="M0 0 C1.65 0 3.3 0 5 0 C4.34 0.66 3.68 1.32 3 2 C2.01 1.34 1.02 0.68 0 0 Z M-2 2 C-0.35 2 1.3 2 3 2 C2.67 3.65 2.34 5.3 2 7 C1.01 6.67 0.02 6.34 -1 6 C-1.6875 3.9375 -1.6875 3.9375 -2 2 Z " fill="#82C45C" transform="translate(80,43)"/>
<path d="M0 0 C2.475 0.99 2.475 0.99 5 2 C5 2.66 5 3.32 5 4 C5.66 4.33 6.32 4.66 7 5 C6.67 5.66 6.34 6.32 6 7 C3.69 6.01 1.38 5.02 -1 4 C-0.34 3.67 0.32 3.34 1 3 C0.67 2.01 0.34 1.02 0 0 Z " fill="#77BCE5" transform="translate(96,92)"/>
<path d="M0 0 C1.32 0.66 2.64 1.32 4 2 C4 2.66 4 3.32 4 4 C1.69 4.33 -0.62 4.66 -3 5 C-3.33 4.34 -3.66 3.68 -4 3 C-2.68 2.01 -1.36 1.02 0 0 Z " fill="#ED4428" transform="translate(117,110)"/>
<path d="M0 0 C5.75 0.875 5.75 0.875 8 2 C7.67 2.99 7.34 3.98 7 5 C5.68 5 4.36 5 3 5 C2.67 4.01 2.34 3.02 2 2 C1.34 1.34 0.68 0.68 0 0 Z " fill="#A9D4F2" transform="translate(93,96)"/>
<path d="M0 0 C0.66 0 1.32 0 2 0 C1.67 1.32 1.34 2.64 1 4 C-1.97 4.66 -4.94 5.32 -8 6 C-6.49650603 2.99301207 -3.9581052 2.41742541 -1 1 C-0.67 0.67 -0.34 0.34 0 0 Z " fill="#E8F2F4" transform="translate(55,79)"/>
<path d="M0 0 C-1.1875 2 -1.1875 2 -3 4 C-5.6875 4.25 -5.6875 4.25 -8 4 C-7.67 3.01 -7.34 2.02 -7 1 C-4.53721199 -0.231394 -2.7204945 -0.07159196 0 0 Z " fill="#4CB970" transform="translate(109,54)"/>
<path d="M0 0 C5.75 0.75 5.75 0.75 8 3 C3.545 3.495 3.545 3.495 -1 4 C-0.67 2.68 -0.34 1.36 0 0 Z " fill="#F03621" transform="translate(111,137)"/>
<path d="M0 0 C-3.51187196 2.40814077 -5.72656908 3.36629408 -10 3 C-6.86618053 -0.60389239 -4.59270471 -1.53090157 0 0 Z " fill="#F1191E" transform="translate(134,136)"/>
<path d="M0 0 C1.98 0.99 1.98 0.99 4 2 C4 3.65 4 5.3 4 7 C3.34 7 2.68 7 2 7 C0 4 0 4 0 0 Z " fill="#59BD79" transform="translate(68,72)"/>
<path d="M0 0 C0.99 0.33 1.98 0.66 3 1 C3.6875 3.0625 3.6875 3.0625 4 5 C-0.75 4.125 -0.75 4.125 -3 3 C-2.67 2.34 -2.34 1.68 -2 1 C-1.34 1.33 -0.68 1.66 0 2 C0 1.34 0 0.68 0 0 Z " fill="#E94A40" transform="translate(116,127)"/>
<path d="M0 0 C1.32 0.66 2.64 1.32 4 2 C3.34 2 2.68 2 2 2 C1.67 2.99 1.34 3.98 1 5 C-1.0625 6.6875 -1.0625 6.6875 -3 8 C-3 4.46136361 -2.14025012 3.67531265 0 1 C0 0.67 0 0.34 0 0 Z " fill="#8CC4EA" transform="translate(46,93)"/>
<path d="M0 0 C1.65 0 3.3 0 5 0 C5.33 0.99 5.66 1.98 6 3 C3.69 3 1.38 3 -1 3 C-0.67 2.01 -0.34 1.02 0 0 Z " fill="#42B66A" transform="translate(107,41)"/>
<path d="M0 0 C2.49361571 1.20381448 4.68143083 2.45428722 7 4 C5.02 4.33 3.04 4.66 1 5 C0.67 3.35 0.34 1.7 0 0 Z " fill="#E8756C" transform="translate(94,113)"/>
<path d="M0 0 C2.31 0.33 4.62 0.66 7 1 C7.33 1.99 7.66 2.98 8 4 C4.31245243 3.50168276 2.39509338 2.89932357 0 0 Z " fill="#8AB7E1" transform="translate(90,103)"/>
<path d="M0 0 C0.66 0.33 1.32 0.66 2 1 C1.44271087 4.34373475 0.64826111 7.03312999 -1 10 C-2.31223496 6.06329512 -1.24296256 3.87511856 0 0 Z " fill="#D4EAE8" transform="translate(34,89)"/>
<path d="M0 0 C1.98 0 3.96 0 6 0 C5.67 0.99 5.34 1.98 5 3 C3.35 3 1.7 3 0 3 C0 2.01 0 1.02 0 0 Z " fill="#3EB364" transform="translate(22,57)"/>
<path d="M0 0 C2.375 0.625 2.375 0.625 5 2 C6.3125 5.125 6.3125 5.125 7 8 C4.35247996 5.42215154 2.05567935 3.08351902 0 0 Z " fill="#EF1E1E" transform="translate(135,104)"/>
<path d="M0 0 C1.98 0 3.96 0 6 0 C6 0.66 6 1.32 6 2 C4.02 2.33 2.04 2.66 0 3 C0 2.01 0 1.02 0 0 Z " fill="#3CB460" transform="translate(72,37)"/>
</svg>
